<svg width="16" height="16" viewBox="0 0 32 32" fill="none" xmlns="http://www.w3.org/2000/svg">
    <path d="M18.7701 1.42178C19.5512 0.640733 20.8175 0.640733 21.5985 1.42178L30.7624 10.5857C31.5435 11.3667 31.5435 12.6331 30.7624 13.4141L21.5985 22.578C20.8175 23.3591 19.5512 23.3591 18.7701 22.578L9.60621 13.4141C8.82516 12.6331 8.82516 11.3667 9.60621 10.5857L18.7701 1.42178Z" fill="#4CA154"/>
    <path d="M10.5782 1.42196C11.3593 0.640916 12.6256 0.640916 13.4066 1.42197L22.5705 10.5859C23.3516 11.3669 23.3516 12.6332 22.5705 13.4143L13.4066 22.5782C12.6256 23.3592 11.3593 23.3592 10.5782 22.5782L1.41432 13.4143C0.633269 12.6332 0.63327 11.3669 1.41432 10.5859L10.5782 1.42196Z" fill="#2A4DD0"/>
</svg>
